<svg xmlns="http://www.w3.org/2000/svg" width="22" height="22" viewBox="0 0 22 22"><path d="M8.615,2H5.273A3.284,3.284,0,0,0,2,5.3V8.666a3.285,3.285,0,0,0,3.273,3.3H8.615a3.285,3.285,0,0,0,3.273-3.3V5.3A3.284,3.284,0,0,0,8.615,2ZM5.273,3.535H8.615A1.749,1.749,0,0,1,10.353,5.3V8.666a1.75,1.75,0,0,1-1.738,1.76H5.273a1.75,1.75,0,0,1-1.738-1.76V5.3A1.749,1.749,0,0,1,5.273,3.535ZM20.728,2H17.385a3.284,3.284,0,0,0-3.273,3.3V8.666a3.285,3.285,0,0,0,3.273,3.3h3.343A3.285,3.285,0,0,0,24,8.666V5.3A3.284,3.284,0,0,0,20.728,2ZM17.385,3.535h3.343A1.749,1.749,0,0,1,22.465,5.3V8.666a1.75,1.75,0,0,1-1.737,1.76H17.385a1.75,1.75,0,0,1-1.738-1.76V5.3A1.749,1.749,0,0,1,17.385,3.535ZM5.273,14.039H8.615a3.284,3.284,0,0,1,3.273,3.3V20.7A3.284,3.284,0,0,1,8.615,24H5.273A3.284,3.284,0,0,1,2,20.7v-3.37A3.284,3.284,0,0,1,5.273,14.039Zm3.342,1.535H5.273a1.75,1.75,0,0,0-1.738,1.761V20.7a1.749,1.749,0,0,0,1.738,1.76H8.615a1.749,1.749,0,0,0,1.738-1.76v-3.37A1.75,1.75,0,0,0,8.615,15.574Zm12.113-1.535H17.385a3.284,3.284,0,0,0-3.273,3.3V20.7A3.284,3.284,0,0,0,17.385,24h3.343A3.284,3.284,0,0,0,24,20.7v-3.37A3.284,3.284,0,0,0,20.728,14.039Zm-3.343,1.535h3.343a1.749,1.749,0,0,1,1.737,1.761V20.7a1.749,1.749,0,0,1-1.737,1.76H17.385a1.749,1.749,0,0,1-1.738-1.76v-3.37A1.75,1.75,0,0,1,17.385,15.574Z" transform="translate(-2 -2)" fill="#200e32" fill-rule="evenodd"/></svg>