<svg xmlns="http://www.w3.org/2000/svg" width="17.425" height="19.009" viewBox="0 0 17.425 19.009"><path d="M15.526,3.322A1.921,1.921,0,0,0,13.711,2h-4l-.152.006a1.92,1.92,0,0,0-1.7,1.425l-.24,1.2-.028.106a.848.848,0,0,1-.8.58H3.708l-.1.007a.713.713,0,0,0,.1,1.419H19.717l.1-.007a.713.713,0,0,0-.1-1.419H16.633l-.108-.007a.85.85,0,0,1-.722-.679l-.229-1.156Zm-.992,1.995a2.291,2.291,0,0,1-.083-.249l-.037-.157L14.194,3.8a.5.5,0,0,0-.4-.366l-.084-.007h-4a.509.509,0,0,0-.449.264l-.025.065L9.012,4.911a2.294,2.294,0,0,1-.12.406Zm3.934,3.071a.711.711,0,0,1,.65.671l-.009.2-.3,3.661-.319,3.572c-.068.713-.128,1.315-.18,1.788a2.823,2.823,0,0,1-2.917,2.7c-2.563.046-5.026.046-7.418,0a2.8,2.8,0,0,1-2.85-2.689L5,17.084l-.215-2.322-.221-2.548L4.309,9.155a.708.708,0,0,1,1.4-.21l.029.28.237,2.868.259,2.972c.116,1.287.217,2.328.3,3.059A1.4,1.4,0,0,0,8,19.545c2.374.05,4.818.051,7.363,0A1.418,1.418,0,0,0,16.9,18.118l.123-1.191c.036-.367.074-.772.115-1.212l.259-2.923.312-3.751a.71.71,0,0,1,.666-.655Z" transform="translate(-3 -2)" fill="#dc2a1c" fill-rule="evenodd"/></svg>