<svg xmlns="http://www.w3.org/2000/svg" width="54" height="54" viewBox="0 0 54 54"><g transform="translate(-933 -4212)"><circle cx="27" cy="27" r="27" transform="translate(933 4212)" fill="#fae038"/><g transform="translate(-1 -3)"><rect width="20" height="20" transform="translate(951 4232)" fill="rgba(255,255,255,0)"/><path d="M19.759,16.254a.811.811,0,0,1-1.072.081l-.092-.081L12,9.527,5.405,16.254a.811.811,0,0,1-1.072.081l-.092-.081a.852.852,0,0,1-.08-1.093l.08-.094,7.177-7.321a.811.811,0,0,1,1.072-.081l.092.081,7.177,7.321A.851.851,0,0,1,19.759,16.254Z" transform="translate(949 4230)" fill="#131313"/></g></g></svg>