<svg xmlns="http://www.w3.org/2000/svg" width="28" height="28" viewBox="0 0 28 28"><g transform="translate(-1536 -536)"><rect width="28" height="28" transform="translate(1536 536)" fill="rgba(255,255,255,0)"/><path d="M18.814,3.668A2.425,2.425,0,0,0,16.523,2H11.477l-.192.008a2.423,2.423,0,0,0-2.146,1.8l-.3,1.515L8.8,5.455a1.071,1.071,0,0,1-1.013.732H3.894L3.773,6.2a.9.9,0,0,0,.121,1.792H24.106l.121-.008a.9.9,0,0,0-.121-1.792H20.211l-.137-.009a1.074,1.074,0,0,1-.912-.857l-.29-1.459ZM17.562,6.187a2.892,2.892,0,0,1-.105-.314l-.047-.2-.277-1.4a.633.633,0,0,0-.505-.462L16.523,3.8H11.477a.643.643,0,0,0-.566.334l-.031.082-.29,1.46a2.9,2.9,0,0,1-.152.512Zm4.967,3.877a.9.9,0,0,1,.821.847l-.012.247-.384,4.622-.4,4.51c-.085.9-.162,1.66-.228,2.258a3.564,3.564,0,0,1-3.683,3.41c-3.235.059-6.346.058-9.366-.006a3.536,3.536,0,0,1-3.6-3.4l-.156-1.511-.272-2.932L4.97,14.9l-.318-3.862a.894.894,0,0,1,1.764-.265l.037.354.3,3.62L7.078,18.5c.146,1.624.273,2.939.375,3.863a1.761,1.761,0,0,0,1.859,1.793c3,.064,6.083.064,9.3.006a1.791,1.791,0,0,0,1.938-1.808l.155-1.5c.045-.463.094-.975.145-1.53l.327-3.691.394-4.736a.9.9,0,0,1,.841-.826Z" transform="translate(1536 536)" fill="#fff" fill-rule="evenodd"/></g></svg>