<svg xmlns="http://www.w3.org/2000/svg" width="28" height="28" viewBox="0 0 28 28"><g transform="translate(-535 -60)"><rect width="28" height="28" transform="translate(535 60)" fill="rgba(255,255,255,0)"/><path d="M19.43,3H8.547C4.744,3,2,6.131,2,10.161v7.678C2,21.869,4.744,25,8.547,25H19.42a6.573,6.573,0,0,0,4.795-2.167,6.921,6.921,0,0,0,1.772-5.049l0-7.623a6.881,6.881,0,0,0-1.774-4.993A6.567,6.567,0,0,0,19.43,3ZM8.547,4.868H19.41a4.767,4.767,0,0,1,3.473,1.573,5.023,5.023,0,0,1,1.286,3.665l0,7.733a5.064,5.064,0,0,1-1.285,3.72,4.767,4.767,0,0,1-3.473,1.573H8.547c-2.752,0-4.726-2.253-4.726-5.293V10.161C3.821,7.121,5.8,4.868,8.547,4.868ZM21.229,9.891a.9.9,0,0,0-1.28-.146L15.03,13.785l-.141.1a1.631,1.631,0,0,1-1.9-.108L8.037,9.743l-.112-.078a.9.9,0,0,0-1.168.229A.95.95,0,0,0,6.9,11.207l4.961,4.039.194.144a3.417,3.417,0,0,0,4.1-.139L21.087,11.2l.1-.094A.952.952,0,0,0,21.229,9.891Z" transform="translate(535 60)" fill="#131313" fill-rule="evenodd"/></g></svg>