<svg xmlns="http://www.w3.org/2000/svg" width="31.113" height="31.113" viewBox="0 0 31.113 31.113">
  <path id="Plus" d="M17.795,2H8.205C4.481,2,2,4.662,2,8.482v9.035C2,21.342,4.475,24,8.205,24h9.589C21.525,24,24,21.342,24,17.517V8.482C24,4.658,21.525,2,17.795,2ZM8.205,3.535h9.589c2.857,0,4.67,1.948,4.67,4.948v9.035c0,3-1.813,4.948-4.67,4.948H8.205c-2.857,0-4.67-1.948-4.67-4.948V8.482C3.535,5.486,5.354,3.535,8.205,3.535ZM13,8.474a.768.768,0,0,1,.76.663l.007.1v2.981h2.985a.768.768,0,0,1,.1,1.528l-.1.007H13.767v2.981a.768.768,0,0,1-1.528.1l-.007-.1V13.758H9.248a.768.768,0,0,1-.1-1.528l.1-.007h2.984V9.242A.767.767,0,0,1,13,8.474Z" transform="translate(15.556 -2.828) rotate(45)" fill="#131313" fill-rule="evenodd"/>
</svg>
