<svg xmlns="http://www.w3.org/2000/svg" width="28" height="28" viewBox="0 0 28 28"><g transform="translate(-660 -51)"><g transform="translate(660 51)"><rect width="28" height="28" fill="rgba(255,255,255,0)"/><path d="M13.534,2A11.409,11.409,0,0,0,2,13.279,11.409,11.409,0,0,0,13.534,24.558a11.648,11.648,0,0,0,7.2-2.468l3.749,3.657.1.084a.9.9,0,0,0,1.156-.086.855.855,0,0,0,0-1.228l-3.7-3.614a11.1,11.1,0,0,0,3.033-7.624A11.409,11.409,0,0,0,13.534,2Zm0,1.737a9.651,9.651,0,0,1,9.757,9.542,9.651,9.651,0,0,1-9.757,9.542,9.651,9.651,0,0,1-9.757-9.542A9.651,9.651,0,0,1,13.534,3.737Z" fill="#200e32" fill-rule="evenodd"/></g></g></svg>