<svg xmlns="http://www.w3.org/2000/svg" width="28" height="28" viewBox="0 0 28 28"><g transform="translate(-1493 -47)"><rect width="28" height="28" transform="translate(1493 47)" fill="rgba(255,255,255,0)"/><path d="M19.907,7.258A5.925,5.925,0,0,0,13.986,2,5.994,5.994,0,0,0,9.764,3.711a5.84,5.84,0,0,0-1.72,3.547h0c-2.156,0-3.968,1.561-4.477,4.272l-.921,7.044C1.86,23.733,4.307,26,9.1,26h9.8c4.428,0,7.075-2.556,6.532-7.142l-.951-7.28c-.61-2.745-2.375-4.32-4.485-4.32Zm-1.775,0a4.177,4.177,0,0,0-4.15-3.521,4.222,4.222,0,0,0-2.976,1.2A4.115,4.115,0,0,0,9.819,7.258ZM8.043,9H19.994c1.238,0,2.325.97,2.751,2.88l.9,6.921c.536,3.682-1.247,5.466-4.748,5.466H9.1c-3.79,0-5.32-1.417-4.707-5.448L5.3,11.8C5.655,9.943,6.754,9,8.043,9Zm9.426,3.224a.868.868,0,0,1,.119,1.729l-.119.008h-.054a.868.868,0,0,1-.119-1.729l.119-.008Zm-5.966.869a.875.875,0,0,0-.881-.869h-.054l-.12.008a.868.868,0,0,0,.12,1.729h.054l.119-.008A.873.873,0,0,0,11.5,13.088Z" transform="translate(1493 47)" fill="#131313" fill-rule="evenodd"/></g></svg>