<svg xmlns="http://www.w3.org/2000/svg" width="28" height="28" viewBox="0 0 28 28"><g transform="translate(-1114 -67)"><rect width="28" height="28" transform="translate(1114 67)" fill="rgba(255,255,255,0)"/><path d="M7.365,2,7.4,2a2.711,2.711,0,0,1,1.673.852A17.989,17.989,0,0,1,12.2,7.215a2.9,2.9,0,0,1-.553,2.294l-.131.232c-.249.454-.287.641-.21.856a10.661,10.661,0,0,0,6.063,6.081c.271.1.476.042,1.048-.287l.3-.169a2.68,2.68,0,0,1,2.068-.424,18.034,18.034,0,0,1,4.357,3.135A2.728,2.728,0,0,1,26,20.648c.057,1.629-1.93,3.922-3.142,4.611-1.379.986-3.128.97-5.09.057C12.637,23.182,4.79,15.385,2.7,10.261l-.125-.287C1.78,8.077,1.8,6.437,2.707,5.2,3.537,3.826,5.776,1.929,7.365,2Zm-.1,1.755-.106.005a6.425,6.425,0,0,0-3,2.412l-.094.14c-.469.764-.415,1.814.238,3.252l.125.292c2.107,4.728,9.4,11.921,14.039,13.851l.255.114a3.092,3.092,0,0,0,3.18-.04l.061-.039a9.148,9.148,0,0,0,1.293-1.232,3.43,3.43,0,0,0,.983-1.761,1.106,1.106,0,0,0-.358-.592,23.653,23.653,0,0,0-3.46-2.643c-.261-.054-.475.019-1.061.356l-.295.165a2.524,2.524,0,0,1-2.331.279,12.451,12.451,0,0,1-7.07-7.089,2.67,2.67,0,0,1,.416-2.523l.135-.237c.257-.464.312-.661.263-.895A23.573,23.573,0,0,0,7.843,4.112a1.1,1.1,0,0,0-.591-.358Z" transform="translate(1114 67)" fill="#fff" fill-rule="evenodd"/></g></svg>